<svg xmlns="http://www.w3.org/2000/svg" xmlns:xlink="http://www.w3.org/1999/xlink"><defs><linearGradient id="paint0_linear" x1="4.737" y1=".486" x2="14.67" y2="3.988" gradientUnits="userSpaceOnUse"><stop stop-color="#FFC341"/><stop offset=".964" stop-color="#FFD701"/></linearGradient></defs><symbol id="icon-play"><path d="M13.333 8.583L.833 16.5V.667l12.5 7.916z" fill="#1FC0FC"/></symbol><symbol id="icon-telegram"><path d="M9.633 14.863l-.364 5.026c.52 0 .746-.22 1.016-.483l2.441-2.291 5.059 3.637c.927.508 1.581.24 1.831-.838l3.32-15.275h.001c.295-1.347-.495-1.874-1.4-1.543L2.022 10.432c-1.332.507-1.311 1.236-.226 1.566l4.99 1.524 11.59-7.12c.545-.354 1.04-.158.633.197l-9.375 8.264z"/></symbol><symbol id="icon-whatsapp"><path d="M12.002 2h-.005C6.485 2 2 6.485 2 12c0 2.188.705 4.215 1.904 5.861l-1.246 3.715L6.5 20.347A9.913 9.913 0 0012.002 22C17.517 22 22 17.514 22 12S17.516 2 12.002 2zm5.82 14.121c-.242.681-1.2 1.247-1.963 1.412-.523.11-1.205.2-3.503-.753-2.938-1.218-4.831-4.204-4.978-4.398-.142-.193-1.188-1.58-1.188-3.016 0-1.435.729-2.133 1.022-2.433.242-.247.64-.36 1.023-.36.124 0 .235.007.335.012.294.013.441.03.635.494.241.581.829 2.016.899 2.163.071.148.142.348.042.542-.094.2-.176.288-.324.458-.147.17-.287.3-.434.483-.136.159-.288.329-.118.623.17.287.758 1.246 1.623 2.016 1.116.993 2.02 1.311 2.345 1.446.24.1.528.076.705-.111.223-.242.5-.642.78-1.035.2-.283.453-.318.718-.218.27.094 1.699.8 1.993.947.293.147.487.217.558.34.07.124.07.706-.17 1.388z"/></symbol><symbol id="icon-close"><path fill-rule="evenodd" clip-rule="evenodd" d="M7.485 8.5L0 1.507 1.418 0 9 7.084 16.582 0 18 1.507 10.515 8.5 18 15.493 16.582 17 9 9.916 1.418 17 0 15.493 7.485 8.5z" fill="#FFC341"/></symbol><symbol id="icon-arrow"><path opacity=".2" d="M1 16.5L9 9 1 1.5" stroke="#484848" stroke-width="2"/></symbol><symbol id="icon-fb"><path d="M15.538 5.187H17.4V1.943c-.321-.044-1.426-.143-2.713-.143-2.685 0-4.524 1.689-4.524 4.793V9.45H7.2v3.626h2.963V22.2h3.632v-9.123h2.843l.452-3.626h-3.295V6.953c0-1.049.283-1.766 1.743-1.766z"/></symbol><symbol id="icon-ig"><path d="M12 8.4A3.604 3.604 0 008.4 12c0 1.985 1.615 3.6 3.6 3.6s3.6-1.615 3.6-3.6-1.615-3.6-3.6-3.6z"/><path fill-rule="evenodd" clip-rule="evenodd" d="M2.4 17.61V6.39A3.99 3.99 0 016.39 2.4h11.22a3.99 3.99 0 013.99 3.99v11.22a3.99 3.99 0 01-3.99 3.99H6.39a3.99 3.99 0 01-3.99-3.99zm4.16-7.644a5.823 5.823 0 007.474 7.474 5.508 5.508 0 003.406-3.406A5.823 5.823 0 009.966 6.56 5.508 5.508 0 006.56 9.966zM18 6.6a1.2 1.2 0 100-2.4 1.2 1.2 0 000 2.4z"/></symbol><symbol id="icon-tw"><path d="M23.077 5.13a9.443 9.443 0 01-2.617.718 4.516 4.516 0 001.998-2.51 9.075 9.075 0 01-2.88 1.1 4.54 4.54 0 00-7.856 3.106c0 .359.03.705.105 1.035C8.05 8.394 4.71 6.585 2.466 3.828a4.573 4.573 0 00-.622 2.296c0 1.573.81 2.967 2.017 3.774a4.485 4.485 0 01-2.052-.56v.05a4.563 4.563 0 003.64 4.463c-.37.101-.774.15-1.192.15a4.02 4.02 0 01-.86-.078c.589 1.799 2.259 3.121 4.244 3.164a9.125 9.125 0 01-5.63 1.937c-.373 0-.73-.017-1.088-.062A12.787 12.787 0 007.891 21c8.357 0 12.926-6.923 12.926-12.924 0-.2-.007-.395-.017-.587a9.06 9.06 0 002.277-2.358z"/></symbol></svg>